<?xml version="1.0" encoding="UTF-8" standalone="no"?>
<svg
   xmlns:dc="http://purl.org/dc/elements/1.1/"
   xmlns:cc="http://creativecommons.org/ns#"
   xmlns:rdf="http://www.w3.org/1999/02/22-rdf-syntax-ns#"
   xmlns:svg="http://www.w3.org/2000/svg"
   xmlns="http://www.w3.org/2000/svg"
   id="svg8"
   version="1.1"
   viewBox="0 0 209.66043 50.192238"
   height="50.192238mm"
   width="209.66043mm">
  <defs
     id="defs2" />
  <metadata
     id="metadata5">
    <rdf:RDF>
      <cc:Work
         rdf:about="">
        <dc:format>image/svg+xml</dc:format>
        <dc:type
           rdf:resource="http://purl.org/dc/dcmitype/StillImage" />
        <dc:title></dc:title>
      </cc:Work>
    </rdf:RDF>
  </metadata>
  <g
     transform="translate(-0.28598548,-0.36983398)"
     id="layer1">
    <path
       id="path826"
       d="m 0.28620653,45.948249 v -4.613668 l 1.75117747,-0.03743 1.7511723,-0.03743 0.036389,-3.981904 0.036389,-3.981899 H 6.535121 9.2089035 l 0.036809,3.245753 0.036809,3.245749 1.6138265,0.03774 1.613832,0.03769 v -8.302722 -8.302662 h 6.592663 6.592663 v 7.629189 7.629189 h 0.824084 0.824082 v -0.736165 -0.736151 h 1.848167 1.848173 l 0.04034,-0.970379 0.04034,-0.97038 h 3.708372 3.708374 l 0.04034,0.97038 0.04034,0.970379 h 1.367454 1.367453 v 0.602307 0.602302 h 1.922862 1.922856 V 32.961244 27.67435 h 3.021641 3.021636 v -1.539223 -1.539223 h 5.080799 5.080795 l 0.0354,8.264954 0.03541,8.264955 h 0.528731 0.528731 l -0.01987,-2.04114 -0.01982,-2.041145 h 2.478421 2.478425 v -0.9308 -0.930805 l 0.92709,-0.03956 0.9271,-0.03956 0.04059,-0.903453 0.04059,-0.903457 h 1.779235 1.779241 v -9.436141 -9.436099 h 3.50235 3.502354 v -0.736151 -0.736151 h 1.167451 1.167453 v 1.003844 1.003838 h 1.716838 1.716839 v 1.405379 1.405375 h 2.060206 2.060208 v -0.869994 -0.869994 h 1.030102 1.030106 v 0.53538 0.535385 h 1.579492 1.579493 v -2.877681 -2.877676 h 6.11194 6.11195 v 2.282052 2.282051 l 0.78974,-0.04017 0.78975,-0.04017 0.036,-4.985738 0.0361,-4.985742 h 0.54771 0.54772 v -0.87 -0.8699939 h 0.61806 0.61806 V 2.2436715 0.36983398 h 2.46886 2.46883 l 0.0378,2.17498842 0.0377,2.1749886 0.72108,0.04047 0.72107,0.04047 v 4.568584 c 0,4.428332 0.008,4.577595 0.28286,4.862001 0.2634,0.273217 0.28466,0.471848 0.30903,2.886301 l 0.0261,2.59289 0.51505,0.04153 0.51506,0.04153 v 3.605748 3.605742 h 1.30481 1.3048 V 17.769743 8.534409 h 0.68045 0.68046 l 0.0406,-0.903453 0.0407,-0.903458 1.47648,-0.03799 1.47648,-0.03799 v 0.740679 0.740678 h 2.19755 2.19755 v 4.617669 4.617665 h 0.41204 0.41204 v -1.338453 -1.338452 h 5.4939 5.49389 v 1.271531 1.27153 h 0.61729 0.6173 l 0.0351,11.544166 0.035,11.544167 0.72107,0.04047 0.72108,0.04047 v 1.599149 1.599154 h 0.61806 0.61807 v -2.936119 -2.936119 l 0.44637,-0.04194 0.44638,-0.04194 0.0375,-2.308832 0.0376,-2.308837 h 0.47749 0.47746 v -0.869995 -0.869994 h 0.96143 0.96143 v 0.73615 0.736151 h 0.75541 0.75542 v 4.149206 4.149207 h 1.0301 1.0301 v -3.808208 -3.808208 l 0.85842,-0.03986 0.85842,-0.03986 0.0404,-0.97038 0.0403,-0.97038 h 0.68073 0.68072 v 0.669229 0.669229 h 2.40356 2.40359 v -1.070765 -1.070765 h 0.75541 0.7554 v 1.070765 1.070765 h 1.09879 1.09877 v 3.346134 3.346133 h 2.12888 2.12889 v -2.074603 -2.074603 h 4.25775 4.25776 v 1.338453 1.338457 h 0.89276 0.89275 v -0.936921 -0.936916 h 2.74695 2.74694 v -0.53538 -0.535385 h 1.71684 1.71684 v 3.881518 3.881519 h 0.75541 0.75541 v -0.803072 -0.803073 h 0.75541 0.75541 v -0.936921 -0.936916 h 4.18908 4.1891 v 1.472301 1.472296 h 1.09877 1.09877 v 1.137687 1.137687 h 1.16746 1.16745 V 44.1373 43.735764 h 2.39905 2.39906 l 0.0388,3.413156 0.0387,3.41315 -104.83021,-9.6e-5 -104.83021452,-9.6e-5 z"
       style="fill:#000000;stroke-width:0.135585" />
  </g>
</svg>
